<?xml version="1.0" encoding="UTF-8" standalone="no"?>
<svg
   xmlns:svg="http://www.w3.org/2000/svg"
   xmlns="http://www.w3.org/2000/svg"
   version="1.1"
   width="503.95755"
   height="203.481"
   id="svg4161">
  <defs
     id="defs4163" />
  <g
     transform="translate(-100.35395,-320.39156)"
     id="layer1">
    <path
       d="m 157.83509,438.81747 c -3.11341,0.002 -8.36709,0.79283 -11.27087,2.06503 -2.90316,1.2674 -5.42631,3.06941 -7.5475,5.35022 -2.13134,2.17177 -3.87421,4.77653 -5.16709,7.79292 -1.26226,2.93237 -1.90005,6.1035 -1.89834,9.54984 0.001,8.95304 2.22731,15.91305 6.48911,21.16844 4.18553,5.05436 10.38616,8.67064 17.97322,8.96953 8.43493,0.32743 13.62961,-1.46572 17.34533,-3.17925 6.69881,-2.69631 11.28522,-7.75106 11.28522,-7.75106 l -0.001,14.88058 c 0.001,7.35239 -3.14929,13.39892 -9.02497,17.98539 -5.7563,4.46022 -13.32689,6.52778 -22.41719,6.53027 -7.02916,-5e-5 -13.7328,-1.35757 -20.05251,-4.06925 -6.27049,-2.82761 -11.85421,-6.70522 -16.64166,-11.57456 -4.67305,-4.88367 -8.47264,-10.67535 -11.3538,-17.27123 -2.79926,-6.69775 -4.19676,-14.00394 -4.19909,-21.83128 5.1e-4,-7.77794 1.19871,-15.20257 3.58642,-22.22088 2.51584,-7.02597 6.12853,-13.23683 10.81103,-18.53845 10.8152,-11.91491 25.2264,-17.27199 40.54274,-17.27233 7.30372,-0.003 14.91207,2.10499 20.59948,7.23984 2.63671,2.28066 6.43508,8.26795 6.43828,16.2374 l -0.003,15.07624 c 0,0 -7.54902,-9.13908 -25.49422,-9.13735 m 435.02162,0.44107 c -1.84206,-0.54616 -4.22385,-0.85943 -7.17587,-0.85655 -4.80667,-0.003 -8.11856,1.5451 -10.34242,4.2334 -2.16053,2.50569 -3.59716,7.24579 -3.59597,14.97018 l -1.3e-4,62.65072 -9.37857,-10e-4 c -5.81974,-0.002 -10.81919,-1.55169 -14.66905,-4.91716 -3.86509,-3.50941 -5.64879,-8.55113 -5.64727,-14.58641 l -0.002,-47.77014 c -0.003,-5.4093 0.69171,-10.68277 2.07452,-15.83134 4.81809,-18.30433 19.07249,-27.74981 36.36151,-27.74981 3.92055,2.5e-4 7.38375,0.5415 10.30022,1.73814 2.89595,1.13018 5.34545,2.67636 7.24094,4.71259 3.41599,3.42584 5.29016,8.4501 5.28878,13.44281 l 5.2e-4,12.18858 -4.17035,-0.003 c -2.05716,-0.88268 -4.13943,-1.61203 -6.28625,-2.2226 m -269.10045,35.76474 c -7.75038,3.87949 -19.19957,4.39868 -35.17691,4.40006 l -12.3403,5.1e-4 c 1.22941,4.19526 4.36314,17.27599 24.78681,18.89779 25.08958,1.98633 33.11432,-10.33518 33.11432,-10.33518 0,0 0.8304,10.34961 -0.65747,17.59901 -2.30468,11.25849 -12.10259,17.75157 -35.818,17.26288 -6.33668,-0.12953 -14.80038,-1.57654 -20.85501,-4.14557 -6.05882,-2.57456 -11.45718,-6.26142 -16.13287,-11.01322 -4.68617,-4.89512 -8.48652,-10.75545 -11.36503,-17.48318 -2.80556,-6.83563 -4.19006,-14.46318 -4.1875,-22.77449 -0.001,-8.87958 1.17616,-17.00203 3.56628,-24.29903 2.49832,-7.37577 5.96617,-13.71345 10.4301,-18.91646 4.45241,-5.18992 9.73223,-9.15484 15.83359,-11.88572 6.23705,-2.86972 12.98649,-4.27685 20.26003,-4.27384 5.35507,-0.002 10.53069,1.02911 15.51778,3.08072 4.96505,1.9215 9.37645,4.73919 13.22328,8.46168 3.88287,3.74674 6.9669,8.31841 9.26397,13.6626 2.33857,5.43783 3.48092,11.4475 3.48145,17.98727 5.1e-4,10.48018 -4.70072,19.49453 -12.94438,23.77414 m -19.03062,-36.22199 c -2.60625,-2.06613 -6.40087,-3.28531 -11.65781,-3.28716 -2.4819,0.003 -8.46643,0.0598 -13.86067,6.23234 -4.8145,5.9695 -4.04136,15.41572 -4.04136,15.41572 0,0 23.81967,1.1094 29.29132,-0.96527 3.85228,-1.15225 4.1621,-6.74065 4.1603,-8.02829 5e-4,-4.51771 -1.41156,-7.45974 -3.89178,-9.36734 m 146.95364,-67.37766 c 10.42328,-16.4112 11.83956,-21.44281 9.1172,-23.89131 -3.27385,-2.23729 -7.81038,0.35698 -21.22164,14.44127 -10.87155,11.41317 -21.83235,24.13615 -14.27351,30.48642 8.23722,5.9941 17.93434,-7.7274 26.37795,-21.03638 m -45.5445,-17.87123 c 4.5067,-18.91316 4.20916,-24.12633 0.8439,-25.55816 l -0.29566,-0.0977 c -3.53637,-0.95002 -6.97578,2.978 -15.06997,20.66008 -6.5607,14.32543 -12.78666,29.93815 -3.57503,33.47598 l 0.30051,0.0982 c 9.43916,2.88742 14.14255,-13.24397 17.79631,-28.57858 M 247.278,371.42473 c -10.4191,-16.41395 -11.84172,-21.44723 -9.12589,-23.89453 3.28029,-2.23591 7.81897,0.35894 21.22288,14.43919 10.87147,11.41699 21.84022,24.13905 14.28375,30.48666 -8.23921,5.99344 -17.93615,-7.72617 -26.38074,-21.03132 m 45.54606,-17.87162 c -4.50947,-18.91554 -4.21475,-24.12909 -0.84942,-25.5608 l 0.30228,-0.10219 c 3.52647,-0.94546 6.97413,2.98379 15.06802,20.66296 6.55732,14.32934 12.78483,29.93695 3.57085,33.48179 l -0.29591,0.093 c -9.44083,2.88841 -14.14556,-13.24316 -17.79548,-28.57502 m 49.18295,-7.72037 c 1.89635,-19.34977 3.86995,-24.19049 7.51531,-24.43992 l 0.32324,-10e-4 c 3.64261,0.25456 5.61975,5.0915 7.52172,24.44206 1.53289,15.68461 2.33859,32.46787 -7.52207,32.81929 l -0.32223,-0.005 c -9.86152,-0.34874 -9.05222,-17.12989 -7.51569,-32.81669 m 48.23372,175.57904 -0.40956,-0.009 0.40956,0.009 z m 0.0516,-0.019 -0.46114,0.006 -0.41261,0.0108 c -8.28262,-0.25817 -12.69195,-4.39251 -17.25195,-11.73324 -3.27868,-5.47341 -6.76554,-12.22747 -10.40361,-20.17613 -3.49121,-8.02232 -6.82254,-16.47891 -9.96204,-25.27729 -3.01412,-8.82101 -5.61992,-17.65688 -7.79315,-26.47006 -2.25579,-9.15198 -3.60489,-17.97896 -4.24517,-27.39311 l 15.86479,-10e-4 c 4.76755,0.003 8.83989,1.56502 11.84849,4.96192 2.7521,2.96646 4.59022,6.21881 5.19905,9.7744 3.25889,18.7852 8.05467,37.2 15.73574,54.48214 1.04037,-0.0203 1.90333,-0.0679 2.8389,2e-4 7.68463,-17.28569 12.47761,-35.6961 15.73922,-54.48434 0.60044,-3.55794 2.44276,-6.80549 5.19331,-9.77683 3.01217,-3.39708 7.08442,-4.95598 11.85198,-4.9549 l 15.86483,-0.001 c -0.63709,9.41238 -1.99035,18.24101 -4.24719,27.39115 -2.17364,8.81415 -4.77658,17.65446 -7.79715,26.46912 -3.13609,8.79946 -6.46184,17.25578 -9.95582,25.27877 -3.64578,7.94916 -7.12476,14.70636 -10.40517,20.17778 -4.55311,7.33046 -8.95271,11.45038 -17.20137,11.71545 m -151.5626,-4.30896 c -3.33655,2.92357 -5.19434,4.1328 -10.86241,4.13059 -10.48986,-5.2e-4 -18.94833,-2.901 -24.88803,-9.13095 -5.81572,-6.2436 -8.52169,-15.13669 -8.52361,-26.16534 l 5.2e-4,-86.19051 c -4.4e-4,-5.50197 1.56516,-10.3083 4.77097,-14.22812 3.3719,-4.26994 8.69164,-6.04647 15.19223,-6.04725 l 9.55505,-8e-5 -0.001,95.82378 5.2e-4,8.13552 c -0.004,4.88978 1.17072,7.28126 2.6154,8.39171 1.94542,1.39663 2.53098,2.34012 8.06728,2.33967 l 9.19803,-0.003 -0.002,8.53159 c -3.3e-4,6.09913 -1.49672,11.18374 -5.12311,14.41187 m 280.48825,-42.0635 c -7.7456,3.88011 -19.19963,4.39864 -35.17214,4.40068 l -12.3451,0 c 1.22942,4.19529 4.36313,17.27603 24.79159,18.8984 25.08963,1.98634 33.10953,-10.33577 33.10953,-10.33577 0,0 0.83525,10.35027 -0.6575,17.59897 -2.29974,11.25919 -12.10256,17.75161 -35.81797,17.26293 -6.33119,-0.13339 -14.80039,-1.57651 -20.85501,-4.14559 -6.0534,-2.5787 -11.45237,-6.26075 -16.13286,-11.01319 -4.68136,-4.89455 -8.48173,-10.75487 -11.36018,-17.48254 -2.80558,-6.83571 -4.19014,-14.46319 -4.18752,-22.77452 -1.6e-4,-8.88435 1.17614,-17.00201 3.56629,-24.29902 2.49343,-7.37638 5.96608,-13.71344 10.43002,-18.91651 4.45779,-5.1941 9.73225,-9.15479 15.83356,-11.88573 6.23229,-2.87029 12.98648,-4.27684 20.26003,-4.27374 5.35574,-0.005 10.53133,1.02422 15.51777,3.08063 4.96508,1.92151 9.37649,4.73928 13.224,8.45688 3.8822,3.75159 6.96142,8.32264 9.26328,13.66745 2.33375,5.43715 3.47609,11.44684 3.47662,17.98659 5.2e-4,10.48022 -4.69592,19.49528 -12.94432,23.77419 M 500.1926,438.79685 c -2.60558,-2.07097 -6.40083,-3.28529 -11.66261,-3.28781 -2.48188,0.003 -8.46162,0.061 -13.85589,6.233 -4.80963,5.97006 -4.04613,15.41507 -4.04613,15.41507 0,0 23.81973,1.10944 29.29614,-0.96462 3.8523,-1.15224 4.1573,-6.74129 4.16035,-8.02824 -0.005,-4.51839 -1.41096,-7.46456 -3.89186,-9.3674"
       id="path784"
       style="fill:#003e8d;fill-opacity:1;fill-rule:evenodd;stroke:none" />
  </g>
</svg>
